<svg width="32" height="32" viewBox="0 0 32 32" fill="none" xmlns="http://www.w3.org/2000/svg">
<path d="M5.62932 26.3707C6.24782 26.99 6.98261 27.4811 7.79148 27.8156C8.60035 28.1502 9.46734 28.3216 10.3427 28.32C11.2182 28.3215 12.0853 28.1501 12.8944 27.8156C13.7035 27.4811 14.4385 26.99 15.0573 26.3707L18.828 22.5987L16.9427 20.7133L13.172 24.4853C12.4206 25.2333 11.4036 25.6533 10.3433 25.6533C9.2831 25.6533 8.26603 25.2333 7.51466 24.4853C6.76599 23.7343 6.3456 22.7171 6.3456 21.6567C6.3456 20.5962 6.76599 19.579 7.51466 18.828L11.2867 15.0573L9.40132 13.172L5.62932 16.9427C4.38107 18.1939 3.68005 19.8892 3.68005 21.6567C3.68005 23.4241 4.38107 25.1194 5.62932 26.3707ZM26.3707 15.0573C27.6183 13.8057 28.3188 12.1105 28.3188 10.3433C28.3188 8.5761 27.6183 6.88094 26.3707 5.62932C25.1194 4.38107 23.4241 3.68005 21.6567 3.68005C19.8892 3.68005 18.1939 4.38107 16.9427 5.62932L13.172 9.40132L15.0573 11.2867L18.828 7.51466C19.5794 6.76664 20.5964 6.3467 21.6567 6.3467C22.7169 6.3467 23.734 6.76664 24.4853 7.51466C25.234 8.26569 25.6544 9.28288 25.6544 10.3433C25.6544 11.4038 25.234 12.421 24.4853 13.172L20.7133 16.9427L22.5987 18.828L26.3707 15.0573Z" fill="#AAB8C2"/>
<path d="M11.2853 22.6L9.39868 20.7147L20.7147 9.40002L22.6 11.2867L11.2853 22.6Z" fill="#AAB8C2"/>
</svg>
