<svg width="18" height="20" viewBox="0 0 18 20" fill="none" xmlns="http://www.w3.org/2000/svg">
<path d="M7.5525 1.17514C7.9579 0.83447 8.47047 0.647705 9 0.647705C9.52953 0.647705 10.0421 0.83447 10.4475 1.17514L17.1975 6.85114C17.4488 7.06227 17.6508 7.32581 17.7894 7.62328C17.928 7.92075 17.9999 8.24495 18 8.57314V18.0006C18 18.3985 17.842 18.78 17.5607 19.0613C17.2794 19.3426 16.8978 19.5006 16.5 19.5006H12.375C11.9772 19.5006 11.5956 19.3426 11.3143 19.0613C11.033 18.78 10.875 18.3985 10.875 18.0006V12.7506H7.125V18.0006C7.125 18.3985 6.96696 18.78 6.68566 19.0613C6.40436 19.3426 6.02282 19.5006 5.625 19.5006H1.5C1.10218 19.5006 0.720644 19.3426 0.43934 19.0613C0.158035 18.78 0 18.3985 0 18.0006V8.57239C8.29948e-05 8.2442 0.0719593 7.92 0.210589 7.62253C0.349218 7.32506 0.551245 7.06152 0.8025 6.85039L7.5525 1.17439V1.17514Z" fill="#AAB8C2"/>
</svg>
