<svg width="24" height="25" viewBox="0 0 24 25" fill="none" xmlns="http://www.w3.org/2000/svg">
<path d="M10.5525 3.17514C10.9579 2.83447 11.4705 2.64771 12 2.64771C12.5295 2.64771 13.0421 2.83447 13.4475 3.17514L20.1975 8.85114C20.4488 9.06227 20.6508 9.32581 20.7894 9.62328C20.928 9.92075 20.9999 10.2449 21 10.5731V20.0006C21 20.3985 20.842 20.78 20.5607 21.0613C20.2794 21.3426 19.8978 21.5006 19.5 21.5006H15.375C14.9772 21.5006 14.5956 21.3426 14.3143 21.0613C14.033 20.78 13.875 20.3985 13.875 20.0006V14.7506H10.125V20.0006C10.125 20.3985 9.96696 20.78 9.68566 21.0613C9.40436 21.3426 9.02282 21.5006 8.625 21.5006H4.5C4.10218 21.5006 3.72064 21.3426 3.43934 21.0613C3.15804 20.78 3 20.3985 3 20.0006V10.5724C3.00008 10.2442 3.07196 9.92 3.21059 9.62253C3.34922 9.32506 3.55124 9.06152 3.8025 8.85039L10.5525 3.17439V3.17514Z" fill="#1D9BF0"/>
</svg>
